<svg xmlns="http://www.w3.org/2000/svg" viewBox="0 0 1200 630" width="1200" height="630">
  <defs>
    <linearGradient id="dbg" x1="0%" y1="0%" x2="100%" y2="100%">
      <stop offset="0%" style="stop-color:#0f0a08"/>
      <stop offset="100%" style="stop-color:#1a100a"/>
    </linearGradient>
    <linearGradient id="daccent" x1="0%" y1="0%" x2="100%" y2="0%">
      <stop offset="0%" style="stop-color:#dc2626"/>
      <stop offset="100%" style="stop-color:#f97316"/>
    </linearGradient>
  </defs>
  <rect width="1200" height="630" fill="url(#dbg)"/>
  <!-- Tech grid -->
  <g stroke="#f9731608" stroke-width="1">
    <line x1="0" y1="105" x2="1200" y2="105"/><line x1="0" y1="210" x2="1200" y2="210"/>
    <line x1="0" y1="315" x2="1200" y2="315"/><line x1="0" y1="420" x2="1200" y2="420"/>
    <line x1="0" y1="525" x2="1200" y2="525"/>
    <line x1="200" y1="0" x2="200" y2="630"/><line x1="400" y1="0" x2="400" y2="630"/>
    <line x1="600" y1="0" x2="600" y2="630"/><line x1="800" y1="0" x2="800" y2="630"/>
    <line x1="1000" y1="0" x2="1000" y2="630"/>
  </g>
  <!-- Left accent bar -->
  <rect x="0" y="0" width="4" height="630" fill="url(#daccent)"/>
  <!-- Nav -->
  <rect x="4" y="0" width="1196" height="56" fill="#1a100a" opacity="0.98"/>
  <rect x="4" y="56" width="1196" height="2" fill="#dc2626" opacity="0.4"/>
  <text x="44" y="37" fill="white" font-family="Arial" font-size="16" font-weight="700">Dixon's Repairs</text>
  <text x="250" y="37" fill="#aaa" font-family="Arial" font-size="13">Home</text>
  <text x="310" y="37" fill="#aaa" font-family="Arial" font-size="13">About</text>
  <text x="375" y="37" fill="#aaa" font-family="Arial" font-size="13">Services</text>
  <text x="445" y="37" fill="#aaa" font-family="Arial" font-size="13">Reviews</text>
  <text x="515" y="37" fill="#aaa" font-family="Arial" font-size="13">Contact</text>
  <rect x="1040" y="15" width="130" height="28" rx="4" fill="url(#daccent)"/>
  <text x="1105" y="33" fill="white" font-family="Arial" font-size="12" font-weight="bold" text-anchor="middle">Get in Touch</text>
  <!-- Hero badge -->
  <rect x="44" y="78" width="250" height="24" rx="4" fill="#dc262615" stroke="#dc262630" stroke-width="1"/>
  <text x="169" y="95" fill="#f87171" font-family="Arial" font-size="11" text-anchor="middle" font-weight="600">Trusted Auto Electrical Specialists</text>
  <!-- Hero heading -->
  <text x="44" y="165" fill="white" font-family="Arial Black" font-size="50" font-weight="900">Dixon's</text>
  <text x="44" y="225" fill="url(#daccent)" font-family="Arial" font-size="30" font-style="italic" font-weight="700">Starter &amp; Alternator</text>
  <text x="44" y="275" fill="white" font-family="Arial Black" font-size="50" font-weight="900">Repairs</text>
  <!-- Subtext -->
  <text x="44" y="315" fill="#888" font-family="Arial" font-size="14">Pretoria's premier auto electrical specialists. Precision</text>
  <text x="44" y="335" fill="#888" font-family="Arial" font-size="14">diagnostics and expert rebuilds — back on the road fast.</text>
  <!-- CTA -->
  <rect x="44" y="360" width="150" height="40" rx="4" fill="url(#daccent)"/>
  <text x="119" y="385" fill="white" font-family="Arial" font-size="13" font-weight="bold" text-anchor="middle">Get in Touch</text>
  <rect x="210" y="360" width="150" height="40" rx="4" fill="transparent" stroke="#dc2626" stroke-width="1.5"/>
  <text x="285" y="385" fill="#f87171" font-family="Arial" font-size="13" text-anchor="middle">Our Services</text>
  <!-- Stats -->
  <g>
    <rect x="44" y="420" width="120" height="60" rx="6" fill="#ffffff04" stroke="#dc262615" stroke-width="1"/>
    <text x="104" y="450" fill="#f97316" font-family="Arial Black" font-size="22" text-anchor="middle" font-weight="900">5.0</text>
    <text x="104" y="470" fill="#555" font-family="Arial" font-size="11" text-anchor="middle">★ Star Rating</text>
    <rect x="180" y="420" width="120" height="60" rx="6" fill="#ffffff04" stroke="#dc262615" stroke-width="1"/>
    <text x="240" y="450" fill="#f97316" font-family="Arial Black" font-size="22" text-anchor="middle" font-weight="900">28+</text>
    <text x="240" y="470" fill="#555" font-family="Arial" font-size="11" text-anchor="middle">Reviews</text>
    <rect x="316" y="420" width="130" height="60" rx="6" fill="#ffffff04" stroke="#dc262615" stroke-width="1"/>
    <text x="381" y="450" fill="#f97316" font-family="Arial Black" font-size="22" text-anchor="middle" font-weight="900">100%</text>
    <text x="381" y="470" fill="#555" font-family="Arial" font-size="11" text-anchor="middle">Satisfaction</text>
  </g>
  <!-- Services cards right panel -->
  <rect x="680" y="70" width="490" height="520" rx="16" fill="#1a100a" stroke="#dc262618" stroke-width="1"/>
  <text x="925" y="115" fill="white" font-family="Arial" font-size="16" text-anchor="middle" font-weight="700">Our Services</text>
  <rect x="700" y="130" width="450" height="65" rx="8" fill="#0f0a08" stroke="#dc262610" stroke-width="1"/>
  <text x="730" y="160" fill="#f97316" font-size="18">⚡</text>
  <text x="760" y="158" fill="white" font-family="Arial" font-size="13" font-weight="600">Starter Motor Repair</text>
  <text x="760" y="178" fill="#555" font-family="Arial" font-size="11">Full rebuild to factory-spec performance</text>
  <rect x="700" y="208" width="450" height="65" rx="8" fill="#0f0a08" stroke="#dc262610" stroke-width="1"/>
  <text x="730" y="238" fill="#f97316" font-size="18">🔋</text>
  <text x="760" y="236" fill="white" font-family="Arial" font-size="13" font-weight="600">Alternator Repair &amp; Recon</text>
  <text x="760" y="256" fill="#555" font-family="Arial" font-size="11">Testing, stator/rotor inspection, rebuild</text>
  <rect x="700" y="286" width="450" height="65" rx="8" fill="#0f0a08" stroke="#dc262610" stroke-width="1"/>
  <text x="730" y="316" fill="#f97316" font-size="18">🔍</text>
  <text x="760" y="314" fill="white" font-family="Arial" font-size="13" font-weight="600">Electrical Diagnostics</text>
  <text x="760" y="334" fill="#555" font-family="Arial" font-size="11">Professional fault pinpointing</text>
  <rect x="700" y="364" width="450" height="65" rx="8" fill="#0f0a08" stroke="#dc262610" stroke-width="1"/>
  <text x="730" y="394" fill="#f97316" font-size="18">🚛</text>
  <text x="760" y="392" fill="white" font-family="Arial" font-size="13" font-weight="600">Heavy Commercial Units</text>
  <text x="760" y="412" fill="#555" font-family="Arial" font-size="11">Trucks, equipment, high-torque units</text>
  <rect x="700" y="442" width="450" height="65" rx="8" fill="#0f0a08" stroke="#dc262610" stroke-width="1"/>
  <text x="730" y="472" fill="#f97316" font-size="18">🔄</text>
  <text x="760" y="470" fill="white" font-family="Arial" font-size="13" font-weight="600">Component Exchange</text>
  <text x="760" y="490" fill="#555" font-family="Arial" font-size="11">Tested reconditioned units in stock</text>
  <!-- Address -->
  <rect x="44" y="500" width="580" height="100" rx="10" fill="#1a100a" stroke="#dc262615" stroke-width="1"/>
  <text x="64" y="530" fill="#888" font-family="Arial" font-size="12">📍 1258 Christina Booysen St, Booysens, Pretoria</text>
  <text x="64" y="552" fill="#888" font-family="Arial" font-size="12">🕐 Mon–Fri: Open until 17:00</text>
  <text x="64" y="572" fill="#fbbf24" font-family="Arial" font-size="12">⭐ 5.0 stars · 28 verified Google reviews</text>
</svg>