<svg xmlns="http://www.w3.org/2000/svg" viewBox="0 0 1200 630" width="1200" height="630">
  <defs>
    <linearGradient id="abg" x1="0%" y1="0%" x2="100%" y2="100%">
      <stop offset="0%" style="stop-color:#0f0d0a"/>
      <stop offset="100%" style="stop-color:#1a1408"/>
    </linearGradient>
    <linearGradient id="aaccent" x1="0%" y1="0%" x2="100%" y2="0%">
      <stop offset="0%" style="stop-color:#d97706"/>
      <stop offset="100%" style="stop-color:#f59e0b"/>
    </linearGradient>
  </defs>
  <rect width="1200" height="630" fill="url(#abg)"/>
  <g stroke="#f59e0b0a" stroke-width="1">
    <line x1="0" y1="105" x2="1200" y2="105"/><line x1="0" y1="210" x2="1200" y2="210"/>
    <line x1="0" y1="315" x2="1200" y2="315"/><line x1="0" y1="420" x2="1200" y2="420"/>
    <line x1="200" y1="0" x2="200" y2="630"/><line x1="400" y1="0" x2="400" y2="630"/>
    <line x1="600" y1="0" x2="600" y2="630"/><line x1="800" y1="0" x2="800" y2="630"/>
    <line x1="1000" y1="0" x2="1000" y2="630"/>
  </g>
  <!-- Nav -->
  <rect x="0" y="0" width="1200" height="56" fill="#1a1408" opacity="0.98"/>
  <rect x="0" y="56" width="1200" height="2" fill="#f59e0b" opacity="0.4"/>
  <text x="40" y="37" fill="white" font-family="Arial" font-size="15" font-weight="700">🐾 Pretoria West Animal Clinic</text>
  <rect x="1040" y="15" width="130" height="28" rx="14" fill="url(#aaccent)"/>
  <text x="1105" y="33" fill="white" font-family="Arial" font-size="12" font-weight="bold" text-anchor="middle">Book a Visit</text>
  <!-- Info bar below nav -->
  <rect x="0" y="58" width="1200" height="32" fill="#1a140e" opacity="0.9"/>
  <text x="600" y="78" fill="#888" font-family="Arial" font-size="11" text-anchor="middle">📍 6 Fraaiuitsig Place, Elandspoort, Pretoria  ·  📞 +27 66 341 3367  ·  ⭐ 4.6 Rating – 66 Reviews</text>
  <!-- Hero badge -->
  <rect x="450" y="108" width="300" height="24" rx="12" fill="#f59e0b15" stroke="#f59e0b30" stroke-width="1"/>
  <text x="600" y="125" fill="#fbbf24" font-family="Arial" font-size="11" text-anchor="middle" font-weight="600">🏥 Registered Veterinary Practice</text>
  <!-- Hero heading -->
  <text x="600" y="185" fill="white" font-family="Arial Black" font-size="46" font-weight="900" text-anchor="middle">Caring For Your</text>
  <text x="600" y="245" fill="#f59e0b" font-family="Arial" font-size="46" font-style="italic" font-weight="700" text-anchor="middle">Beloved Animals</text>
  <!-- Subtext -->
  <text x="600" y="290" fill="#888" font-family="Arial" font-size="14" text-anchor="middle">Professional, compassionate veterinary care in Pretoria West.</text>
  <text x="600" y="312" fill="#888" font-family="Arial" font-size="14" text-anchor="middle">Dr Jafta Mokoele treats every pet like family.</text>
  <!-- CTA Buttons -->
  <rect x="450" y="335" width="140" height="40" rx="20" fill="url(#aaccent)"/>
  <text x="520" y="360" fill="white" font-family="Arial" font-size="13" font-weight="bold" text-anchor="middle">Book a Visit</text>
  <rect x="610" y="335" width="140" height="40" rx="20" fill="transparent" stroke="#f59e0b" stroke-width="1.5"/>
  <text x="680" y="360" fill="#fbbf24" font-family="Arial" font-size="13" text-anchor="middle">Our Services</text>
  <!-- Stats row -->
  <g>
    <rect x="360" y="395" width="140" height="55" rx="10" fill="#ffffff04" stroke="#f59e0b15" stroke-width="1"/>
    <text x="430" y="420" fill="#f59e0b" font-family="Arial Black" font-size="18" text-anchor="middle" font-weight="900">66+</text>
    <text x="430" y="440" fill="#555" font-family="Arial" font-size="11" text-anchor="middle">Reviews</text>
    <rect x="518" y="395" width="140" height="55" rx="10" fill="#ffffff04" stroke="#f59e0b15" stroke-width="1"/>
    <text x="588" y="420" fill="#f59e0b" font-family="Arial Black" font-size="18" text-anchor="middle" font-weight="900">4.6 ⭐</text>
    <text x="588" y="440" fill="#555" font-family="Arial" font-size="11" text-anchor="middle">Star Rating</text>
    <rect x="676" y="395" width="160" height="55" rx="10" fill="#ffffff04" stroke="#f59e0b15" stroke-width="1"/>
    <text x="756" y="420" fill="#f59e0b" font-family="Arial Black" font-size="18" text-anchor="middle" font-weight="900">🏠 House</text>
    <text x="756" y="440" fill="#555" font-family="Arial" font-size="11" text-anchor="middle">Calls Available</text>
  </g>
  <!-- Services grid -->
  <g>
    <rect x="60" y="475" width="260" height="120" rx="12" fill="#1a140e" stroke="#f59e0b15" stroke-width="1"/>
    <text x="180" y="510" fill="#f59e0b" font-size="22" text-anchor="middle">🔬</text>
    <text x="180" y="535" fill="white" font-family="Arial" font-size="13" text-anchor="middle" font-weight="600">General Consultations</text>
    <text x="180" y="555" fill="#555" font-family="Arial" font-size="11" text-anchor="middle">Thorough examinations</text>
    <rect x="340" y="475" width="260" height="120" rx="12" fill="#1a140e" stroke="#f59e0b15" stroke-width="1"/>
    <text x="470" y="510" fill="#f59e0b" font-size="22" text-anchor="middle">💉</text>
    <text x="470" y="535" fill="white" font-family="Arial" font-size="13" text-anchor="middle" font-weight="600">Vaccinations</text>
    <text x="470" y="555" fill="#555" font-family="Arial" font-size="11" text-anchor="middle">Full preventive programs</text>
    <rect x="620" y="475" width="260" height="120" rx="12" fill="#1a140e" stroke="#f59e0b15" stroke-width="1"/>
    <text x="750" y="510" fill="#f59e0b" font-size="22" text-anchor="middle">🐕</text>
    <text x="750" y="535" fill="white" font-family="Arial" font-size="13" text-anchor="middle" font-weight="600">Dogs &amp; Cats</text>
    <text x="750" y="555" fill="#555" font-family="Arial" font-size="11" text-anchor="middle">Small animal specialists</text>
    <rect x="900" y="475" width="240" height="120" rx="12" fill="#1a140e" stroke="#f59e0b15" stroke-width="1"/>
    <text x="1020" y="510" fill="#f59e0b" font-size="22" text-anchor="middle">💰</text>
    <text x="1020" y="535" fill="white" font-family="Arial" font-size="13" text-anchor="middle" font-weight="600">Affordable Rates</text>
    <text x="1020" y="555" fill="#555" font-family="Arial" font-size="11" text-anchor="middle">No hidden fees</text>
  </g>
</svg>